<svg width="250" height="146" viewBox="0 0 250 146" fill="none" xmlns="http://www.w3.org/2000/svg">
<path d="M30.6462 36.8828L8.49231 145H39.1385L60.1846 44.1147L78.7723 48.6656C84.0424 49.9558 89.3799 46.8082 90.8012 41.572L94.7303 27.0966C95.4378 24.49 93.9474 21.7927 91.3641 21.0045L25.7923 0.997497C23.8211 0.396051 21.6828 1.0657 20.4068 2.68409L9.36697 16.6859C4.92791 22.316 7.68132 30.6506 14.6006 32.5284L30.6462 36.8828Z" fill="#005EA6" stroke="#E2E2E2"/>
<path d="M75.485 100H78.62V81.355H85.805V78.4H68.3V81.355H75.485V100ZM86.7113 100H89.8763V91.825C89.8763 90.875 90.0263 89.995 90.3263 89.185C90.6263 88.375 91.1563 87.725 91.9163 87.235C92.4563 86.885 93.0513 86.68 93.7013 86.62C94.3513 86.56 94.9363 86.6 95.4563 86.74V83.8C94.7263 83.66 93.9513 83.665 93.1313 83.815C92.3213 83.965 91.6113 84.265 91.0013 84.715C90.4013 85.115 89.9013 85.67 89.5013 86.38V83.8H86.7113V100ZM102.448 100.45C105.028 100.45 106.973 99.515 108.283 97.645V100H111.058V90.025C111.058 89.345 111.028 88.71 110.968 88.12C110.908 87.53 110.748 86.97 110.488 86.44C109.988 85.37 109.198 84.59 108.118 84.1C107.048 83.6 105.788 83.35 104.338 83.35C102.468 83.35 100.968 83.76 99.8384 84.58C98.7084 85.4 97.9484 86.505 97.5584 87.895L100.483 88.795C100.763 87.895 101.258 87.245 101.968 86.845C102.678 86.445 103.458 86.245 104.308 86.245C105.568 86.245 106.478 86.515 107.038 87.055C107.608 87.585 107.918 88.41 107.968 89.53C106.648 89.71 105.358 89.9 104.098 90.1C102.838 90.29 101.738 90.52 100.798 90.79C99.5484 91.19 98.5984 91.785 97.9484 92.575C97.2984 93.365 96.9734 94.37 96.9734 95.59C96.9734 96.47 97.1784 97.28 97.5884 98.02C98.0084 98.75 98.6234 99.34 99.4334 99.79C100.253 100.23 101.258 100.45 102.448 100.45ZM103.003 97.885C102.003 97.885 101.263 97.655 100.783 97.195C100.313 96.735 100.078 96.19 100.078 95.56C100.078 94.92 100.288 94.415 100.708 94.045C101.138 93.675 101.673 93.38 102.313 93.16C102.993 92.96 103.793 92.785 104.713 92.635C105.643 92.485 106.718 92.32 107.938 92.14C107.928 92.52 107.903 92.945 107.863 93.415C107.823 93.885 107.738 94.305 107.608 94.675C107.488 95.205 107.233 95.715 106.843 96.205C106.463 96.695 105.948 97.1 105.298 97.42C104.658 97.73 103.893 97.885 103.003 97.885ZM114.939 100H118.119V91.57C118.119 90.29 118.304 89.27 118.674 88.51C119.054 87.74 119.554 87.185 120.174 86.845C120.794 86.505 121.479 86.335 122.229 86.335C123.089 86.335 123.789 86.51 124.329 86.86C124.869 87.21 125.284 87.67 125.574 88.24C125.864 88.81 126.059 89.43 126.159 90.1C126.269 90.76 126.324 91.405 126.324 92.035V100H129.504V91C129.504 90.5 129.459 89.92 129.369 89.26C129.279 88.6 129.109 87.925 128.859 87.235C128.609 86.545 128.244 85.91 127.764 85.33C127.294 84.74 126.679 84.265 125.919 83.905C125.159 83.545 124.219 83.365 123.099 83.365C121.929 83.365 120.889 83.575 119.979 83.995C119.079 84.415 118.334 84.995 117.744 85.735V83.8H114.939V100ZM139.606 100.435C141.656 100.435 143.261 99.98 144.421 99.07C145.591 98.16 146.176 96.905 146.176 95.305C146.176 94.465 146.001 93.755 145.651 93.175C145.311 92.595 144.741 92.095 143.941 91.675C143.141 91.245 142.061 90.855 140.701 90.505C139.431 90.185 138.471 89.91 137.821 89.68C137.181 89.44 136.746 89.2 136.516 88.96C136.286 88.71 136.171 88.405 136.171 88.045C136.171 87.425 136.466 86.94 137.056 86.59C137.646 86.23 138.416 86.07 139.366 86.11C140.356 86.15 141.161 86.4 141.781 86.86C142.401 87.31 142.766 87.92 142.876 88.69L146.086 88.105C145.906 86.665 145.201 85.515 143.971 84.655C142.741 83.785 141.196 83.35 139.336 83.35C137.436 83.35 135.911 83.795 134.761 84.685C133.611 85.565 133.036 86.74 133.036 88.21C133.036 89 133.206 89.675 133.546 90.235C133.896 90.785 134.476 91.265 135.286 91.675C136.106 92.085 137.211 92.475 138.601 92.845C139.871 93.185 140.816 93.47 141.436 93.7C142.056 93.93 142.461 94.175 142.651 94.435C142.851 94.685 142.951 95.015 142.951 95.425C142.951 96.125 142.671 96.675 142.111 97.075C141.561 97.475 140.796 97.675 139.816 97.675C138.736 97.675 137.831 97.435 137.101 96.955C136.381 96.475 135.921 95.81 135.721 94.96L132.511 95.455C132.791 97.035 133.551 98.26 134.791 99.13C136.031 100 137.636 100.435 139.606 100.435ZM149.48 107.2H152.63V98.86C153.2 99.37 153.855 99.76 154.595 100.03C155.345 100.31 156.18 100.45 157.1 100.45C158.61 100.45 159.91 100.075 161 99.325C162.1 98.565 162.945 97.54 163.535 96.25C164.135 94.96 164.435 93.505 164.435 91.885C164.435 90.255 164.135 88.8 163.535 87.52C162.935 86.23 162.08 85.215 160.97 84.475C159.87 83.725 158.56 83.35 157.04 83.35C156.04 83.35 155.14 83.52 154.34 83.86C153.54 84.19 152.85 84.655 152.27 85.255V83.8H149.48V107.2ZM156.665 97.615C155.125 97.615 154.005 97.08 153.305 96.01C152.615 94.94 152.27 93.565 152.27 91.885C152.27 90.205 152.615 88.835 153.305 87.775C153.995 86.715 155.08 86.185 156.56 86.185C157.6 86.185 158.455 86.44 159.125 86.95C159.795 87.46 160.29 88.145 160.61 89.005C160.94 89.865 161.105 90.825 161.105 91.885C161.105 92.955 160.945 93.925 160.625 94.795C160.305 95.655 159.815 96.34 159.155 96.85C158.505 97.36 157.675 97.615 156.665 97.615ZM174.781 100.45C176.391 100.45 177.791 100.09 178.981 99.37C180.171 98.64 181.091 97.635 181.741 96.355C182.401 95.065 182.731 93.575 182.731 91.885C182.731 90.215 182.406 88.74 181.756 87.46C181.106 86.17 180.186 85.165 178.996 84.445C177.806 83.715 176.401 83.35 174.781 83.35C173.191 83.35 171.801 83.71 170.611 84.43C169.421 85.15 168.496 86.15 167.836 87.43C167.176 88.71 166.846 90.195 166.846 91.885C166.846 93.555 167.171 95.035 167.821 96.325C168.471 97.615 169.386 98.625 170.566 99.355C171.756 100.085 173.161 100.45 174.781 100.45ZM174.781 97.495C173.271 97.495 172.126 96.99 171.346 95.98C170.566 94.96 170.176 93.595 170.176 91.885C170.176 90.235 170.551 88.895 171.301 87.865C172.051 86.825 173.211 86.305 174.781 86.305C176.311 86.305 177.461 86.81 178.231 87.82C179.011 88.83 179.401 90.185 179.401 91.885C179.401 93.545 179.016 94.895 178.246 95.935C177.486 96.975 176.331 97.495 174.781 97.495ZM186.028 100H189.193V91.825C189.193 90.875 189.343 89.995 189.643 89.185C189.943 88.375 190.473 87.725 191.233 87.235C191.773 86.885 192.368 86.68 193.018 86.62C193.668 86.56 194.253 86.6 194.773 86.74V83.8C194.043 83.66 193.268 83.665 192.448 83.815C191.638 83.965 190.928 84.265 190.318 84.715C189.718 85.115 189.218 85.67 188.818 86.38V83.8H186.028V100ZM206.899 100V97.345C205.839 97.505 204.914 97.54 204.124 97.45C203.344 97.35 202.774 96.995 202.414 96.385C202.224 96.055 202.119 95.65 202.099 95.17C202.089 94.69 202.084 94.125 202.084 93.475V86.32H206.899V83.8H202.084V79.3H198.934V83.8H195.829V86.32H198.934V93.625C198.934 94.505 198.944 95.295 198.964 95.995C198.994 96.685 199.184 97.365 199.534 98.035C199.934 98.785 200.519 99.335 201.289 99.685C202.059 100.035 202.934 100.225 203.914 100.255C204.894 100.285 205.889 100.2 206.899 100ZM210.615 81.145H213.75V78.1H210.615V81.145ZM210.615 100H213.75V83.8H210.615V100Z" fill="#005EA6"/>
<path d="M219.739 100H222.874V86.32H226.969V83.8H222.874V82.63C222.874 81.23 223.609 80.53 225.079 80.53H226.969V77.95H224.929C224.529 77.95 224.084 77.97 223.594 78.01C223.104 78.04 222.614 78.145 222.124 78.325C221.644 78.505 221.194 78.825 220.774 79.285C220.254 79.855 219.949 80.5 219.859 81.22C219.779 81.94 219.739 82.61 219.739 83.23V83.8H217.054V86.32H219.739V100ZM231.548 107.2H234.533L243.473 83.8H240.293L235.718 95.98L230.933 83.8H227.663L234.218 99.925L231.548 107.2Z" fill="#0070BA"/>
</svg>
